<?xml version="1.0" standalone="no"?>
<!DOCTYPE svg PUBLIC "-//W3C//DTD SVG 20010904//EN"
 "http://www.w3.org/TR/2001/REC-SVG-20010904/DTD/svg10.dtd">
<svg version="1.0" xmlns="http://www.w3.org/2000/svg"
 width="640.000000pt" height="640.000000pt" viewBox="0 0 640.000000 640.000000"
 preserveAspectRatio="xMidYMid meet">
<metadata>
Created by potrace 1.11, written by Peter Selinger 2001-2013
</metadata>
<g transform="translate(0.000000,640.000000) scale(0.100000,-0.100000)"
fill="#000000" stroke="none">
<path d="M1989 5463 c-6 -55 -3 -173 6 -174 178 -15 251 -34 332 -90 68 -47
108 -94 147 -174 45 -91 66 -183 73 -317 l6 -108 -54 -1 c-86 -1 -265 -13
-339 -24 -219 -30 -478 -87 -605 -134 -27 -10 -84 -31 -125 -46 -124 -46 -318
-144 -435 -220 -352 -228 -576 -522 -664 -870 -28 -113 -32 -141 -38 -306 -13
-348 65 -640 238 -899 194 -290 528 -522 951 -660 92 -30 330 -93 398 -105 95
-16 272 -44 316 -49 177 -19 225 -23 298 -25 l59 -1 -6 -177 c-4 -116 -12
-199 -22 -238 -63 -232 -213 -337 -496 -348 l-65 -2 -1 -88 0 -87 1247 0 1247
0 0 88 -1 89 -79 1 c-43 1 -82 4 -86 6 -3 2 -26 7 -50 11 -158 23 -279 126
-329 280 -30 90 -33 115 -39 297 -5 158 -4 167 13 166 20 -1 172 10 234 17 91
10 235 27 254 31 11 2 37 7 56 10 19 3 69 12 110 21 41 8 86 17 99 19 13 3 72
18 130 34 294 80 508 174 713 311 115 77 126 86 243 204 218 217 347 485 392
810 10 74 11 370 1 445 -22 167 -94 362 -191 518 -67 106 -70 111 -142 190
-188 207 -444 382 -738 503 -177 73 -499 164 -646 183 -14 2 -42 6 -61 10
-115 20 -277 33 -429 35 l-44 1 6 123 c11 237 80 388 221 479 82 53 183 80
321 87 19 1 20 7 19 84 -1 45 -2 85 -3 90 -1 9 -2441 9 -2442 0z m561 -1140
c1 -79 1 -2757 0 -2811 l0 -43 -67 5 c-473 34 -776 429 -839 1096 -14 144 -7
546 12 700 37 300 87 488 175 663 139 277 367 426 676 445 l43 2 0 -57z m1475
42 c114 -20 191 -50 285 -110 60 -39 190 -159 190 -176 0 -4 6 -14 13 -21 35
-36 102 -165 137 -264 51 -145 85 -295 105 -459 4 -27 8 -61 10 -74 24 -143
23 -620 0 -781 -22 -155 -35 -209 -82 -350 -68 -201 -135 -314 -263 -441 -132
-130 -282 -198 -479 -215 l-71 -7 -2 529 c-2 291 -2 946 0 1457 l2 927 68 -5
c37 -4 76 -8 87 -10z"/>
</g>
</svg>
